<svg width="122" height="111" viewBox="0 0 122 111" fill="none" xmlns="http://www.w3.org/2000/svg">
<path d="M61 0.994385L61.2255 1.00538L62.3695 1.02188C73.5594 1.37051 84.1957 5.97152 92.112 13.8878C100.028 21.8042 104.629 32.4404 104.978 43.6304L104.995 44.9944L105.968 45.0274C110.003 45.2643 113.81 46.9738 116.668 49.8318C119.526 52.6897 121.236 56.4971 121.473 60.5319L121.5 61.4999C121.5 65.876 119.762 70.0728 116.667 73.1672C113.573 76.2615 109.376 77.9999 105 77.9999L104.995 87.3279L115.076 102.453C115.599 103.238 115.911 104.143 115.982 105.084C116.054 106.024 115.883 106.966 115.485 107.821C115.088 108.676 114.477 109.414 113.712 109.965C112.947 110.516 112.053 110.861 111.116 110.967L110.5 111H55.5C36.5525 111.011 20.7015 97.3049 17.5445 78.9679L17.3905 77.9889L17 77.9944C12.7913 77.9946 8.74167 76.3866 5.67957 73.4993C2.61746 70.6121 0.774408 66.6638 0.5275 62.4624L0.5 61.4999C0.5 57.1238 2.23839 52.927 5.33274 49.8326C8.42709 46.7383 12.6239 44.9999 17 44.9999L17.022 43.6249C17.3792 32.1991 22.1692 21.3609 30.3776 13.405C38.5861 5.44904 49.5686 1.00002 61 0.999885V0.994385ZM61 55.9999C58.0826 55.9999 55.2847 57.1588 53.2218 59.2217C51.1589 61.2846 50 64.0825 50 66.9999C50 68.4586 50.5795 69.8575 51.6109 70.889C52.6424 71.9204 54.0413 72.4999 55.5 72.4999H66.5C67.9587 72.4999 69.3576 71.9204 70.3891 70.889C71.4205 69.8575 72 68.4586 72 66.9999C72 64.0825 70.8411 61.2846 68.7782 59.2217C66.7153 57.1588 63.9174 55.9999 61 55.9999ZM50.055 33.9999L49.3565 34.0384C47.9645 34.204 46.6882 34.8948 45.7885 35.9698C44.8887 37.0448 44.4334 38.4228 44.5156 39.8222C44.5977 41.2216 45.2111 42.5369 46.2305 43.4992C47.2498 44.4616 48.5982 44.9983 50 44.9999L50.6985 44.9614C52.0905 44.7958 53.3668 44.105 54.2665 43.03C55.1663 41.955 55.6216 40.577 55.5394 39.1776C55.4573 37.7781 54.8439 36.4629 53.8245 35.5005C52.8052 34.5382 51.4568 34.0014 50.055 33.9999ZM72.055 33.9999L71.3565 34.0384C69.9645 34.204 68.6882 34.8948 67.7885 35.9698C66.8887 37.0448 66.4334 38.4228 66.5155 39.8222C66.5977 41.2216 67.2111 42.5369 68.2305 43.4992C69.2498 44.4616 70.5982 44.9983 72 44.9999L72.6985 44.9614C74.0905 44.7958 75.3668 44.105 76.2665 43.03C77.1663 41.955 77.6216 40.577 77.5394 39.1776C77.4573 37.7781 76.8439 36.4629 75.8245 35.5005C74.8052 34.5382 73.4568 34.0014 72.055 33.9999Z" fill="#6366F1"/>
</svg>
