<svg width="720" height="1024" viewBox="0 0 720 1024" fill="none" xmlns="http://www.w3.org/2000/svg">
<g clip-path="url(#clip0_144_3353)">
<rect width="720" height="1024" fill="#17181C"/>
<path d="M72.7506 57.8825C75.6737 57.8825 78.5313 58.7105 80.9618 60.2617C83.3923 61.813 85.2867 64.0178 86.4053 66.5975C87.524 69.1771 87.8167 72.0157 87.2464 74.7542C86.6761 77.4927 85.2685 80.0082 83.2015 81.9826C81.1345 83.957 78.501 85.3015 75.634 85.8463C72.767 86.391 69.7952 86.1114 67.0946 85.0429C64.3939 83.9744 62.0857 82.1649 60.4616 79.8433C58.8376 77.5217 57.9708 74.7922 57.9708 72C57.9753 68.2571 59.5339 64.6688 62.3047 62.0222C65.0755 59.3756 68.8321 57.8868 72.7506 57.8825ZM72.7506 56C69.4376 56 66.1991 56.9384 63.4445 58.6965C60.6898 60.4546 58.5429 62.9534 57.2751 65.8771C56.0073 68.8007 55.6755 72.0177 56.3219 75.1214C56.9682 78.2251 58.5635 81.0761 60.9061 83.3137C63.2487 85.5513 66.2334 87.0752 69.4827 87.6926C72.732 88.3099 76.1 87.9931 79.1607 86.7821C82.2215 85.5711 84.8376 83.5203 86.6782 80.8891C88.5187 78.2579 89.5011 75.1645 89.5011 72C89.5011 67.7565 87.7364 63.6869 84.595 60.6863C81.4537 57.6857 77.1931 56 72.7506 56Z" fill="#C8512C"/>
<path d="M81.4079 67.2947H76.2161C76.1752 67.2931 76.1356 67.2802 76.102 67.2578C76.0685 67.2353 76.0424 67.2041 76.0268 67.1679C76.0113 67.1317 76.0069 67.092 76.0142 67.0535C76.0215 67.015 76.0402 66.9793 76.0681 66.9506L77.6165 65.4737C77.6559 65.4364 77.7089 65.4151 77.7644 65.4143H81.41C81.4669 65.4143 81.5215 65.4359 81.5617 65.4743C81.6019 65.5127 81.6245 65.5648 81.6245 65.6191V67.0919C81.6242 67.1188 81.6184 67.1454 81.6074 67.1702C81.5963 67.1949 81.5803 67.2174 81.5602 67.2362C81.5401 67.255 81.5163 67.2699 81.4901 67.2799C81.464 67.29 81.4361 67.295 81.4079 67.2947Z" fill="white"/>
<path d="M69.2873 67.2948H64.0934C64.0365 67.2948 63.9819 67.2732 63.9417 67.2348C63.9015 67.1964 63.8789 67.1443 63.8789 67.0899V65.613C63.8789 65.5587 63.9015 65.5066 63.9417 65.4682C63.9819 65.4298 64.0365 65.4082 64.0934 65.4082H67.739C67.7924 65.4126 67.8421 65.436 67.8784 65.4738L69.4288 66.9547C69.4552 66.9831 69.4728 67.0179 69.4797 67.0553C69.4865 67.0927 69.4824 67.1311 69.4677 67.1664C69.4531 67.2017 69.4284 67.2323 69.3966 67.255C69.3647 67.2777 69.3269 67.2914 69.2873 67.2948Z" fill="white"/>
<path d="M81.4118 69.1753H64.0887C63.975 69.1753 63.8828 69.2633 63.8828 69.3719V70.8611C63.8828 70.9697 63.975 71.0578 64.0887 71.0578H81.4118C81.5255 71.0578 81.6177 70.9697 81.6177 70.8611V69.3719C81.6177 69.2633 81.5255 69.1753 81.4118 69.1753Z" fill="white"/>
<path d="M81.4118 72.9402H64.0887C63.975 72.9402 63.8828 73.0282 63.8828 73.1368V74.626C63.8828 74.7346 63.975 74.8227 64.0887 74.8227H81.4118C81.5255 74.8227 81.6177 74.7346 81.6177 74.626V73.1368C81.6177 73.0282 81.5255 72.9402 81.4118 72.9402Z" fill="white"/>
<path d="M81.4118 76.7051H64.0887C63.975 76.7051 63.8828 76.7931 63.8828 76.9017V78.3909C63.8828 78.4995 63.975 78.5876 64.0887 78.5876H81.4118C81.5255 78.5876 81.6177 78.4995 81.6177 78.3909V76.9017C81.6177 76.7931 81.5255 76.7051 81.4118 76.7051Z" fill="white"/>
<path d="M103.721 71.1132L103.936 78.8152H99.4688V65.1831H105.746L108.319 72.5184H108.42L110.661 65.1831H117.139V78.8152H112.471L112.612 71.1521L112.492 71.1337L109.831 78.8172H106.443L103.822 71.1153L103.721 71.1132Z" fill="white"/>
<path d="M124.868 65.1831H129.968L135.531 78.8152H130.311L129.565 76.8118H125.029L124.323 78.8152H119.243L124.868 65.1831ZM127.347 69.9395L126.178 73.3091H128.497L127.347 69.9395Z" fill="white"/>
<path d="M142.72 79.1983C142.149 79.1988 141.58 79.1508 141.018 79.0549C140.468 78.961 139.928 78.8198 139.405 78.6329C138.901 78.4536 138.412 78.2357 137.945 77.9816C137.506 77.7454 137.094 77.4667 136.716 77.1499L139.643 74.1183C140.029 74.4997 140.483 74.8125 140.983 75.0421C141.513 75.3065 142.101 75.4469 142.699 75.4518C142.951 75.4549 143.201 75.4089 143.434 75.3166C143.539 75.2782 143.628 75.2086 143.688 75.1182C143.747 75.0278 143.775 74.9214 143.767 74.8147C143.77 74.6965 143.731 74.5808 143.655 74.487C143.545 74.3705 143.412 74.2758 143.263 74.2084C143.018 74.085 142.765 73.9769 142.506 73.8848C142.177 73.7687 141.764 73.6321 141.266 73.4751C140.789 73.3241 140.324 73.1407 139.875 72.9261C139.444 72.7226 139.046 72.4596 138.695 72.1457C138.348 71.832 138.07 71.4552 137.878 71.0375C137.663 70.5462 137.56 70.0171 137.574 69.4848C137.546 68.7293 137.732 67.9807 138.112 67.3176C138.46 66.7437 138.935 66.2494 139.504 65.8694C140.088 65.4845 140.743 65.2067 141.434 65.05C142.126 64.8848 142.837 64.8002 143.55 64.7981C144.532 64.8058 145.505 64.9821 146.422 65.3184C147.375 65.6517 148.25 66.162 148.995 66.8199L146.012 69.7265C145.696 69.3461 145.287 69.0452 144.822 68.8498C144.426 68.6663 143.994 68.5631 143.555 68.5467C143.265 68.5361 142.976 68.5857 142.708 68.6921C142.611 68.7305 142.529 68.7954 142.471 68.8785C142.413 68.9616 142.382 69.0592 142.382 69.1591C142.382 69.259 142.413 69.3567 142.471 69.4398C142.529 69.5229 142.611 69.5877 142.708 69.6262C143.056 69.7756 143.414 69.9042 143.78 70.0113C144.29 70.1656 144.828 70.3451 145.392 70.55C145.948 70.7503 146.473 71.0188 146.956 71.3489C147.428 71.672 147.829 72.0813 148.135 72.5533C148.461 73.0905 148.622 73.7047 148.598 74.3252C148.617 75.0705 148.44 75.8085 148.084 76.4719C147.754 77.0668 147.293 77.5861 146.733 77.9938C146.167 78.4022 145.528 78.709 144.848 78.8992C144.157 79.0967 143.441 79.1975 142.72 79.1983Z" fill="white"/>
<path d="M160.305 73.6368H156.394V78.8172H151.597V65.1831H156.375V69.8043H160.286V65.1831H165.105V78.8152H160.305V73.6368Z" fill="white"/>
<path d="M175.283 79.1982C174.292 79.2177 173.306 79.0679 172.37 78.7558C171.601 78.494 170.897 78.0809 170.305 77.5431C169.757 77.0334 169.337 76.4115 169.077 75.7241C168.802 74.9993 168.664 74.2336 168.669 73.4627V65.1831H173.466V72.967C173.466 73.6211 173.631 74.1312 173.96 74.4971C174.333 74.8493 174.836 75.0467 175.361 75.0467C175.886 75.0467 176.389 74.8493 176.762 74.4971C177.091 74.1312 177.256 73.6211 177.256 72.967V65.1831H182.034V73.4627C182.04 74.2329 181.895 74.9974 181.605 75.7159C181.321 76.4053 180.882 77.0264 180.318 77.5349C179.711 78.0731 178.994 78.486 178.212 78.7476C177.271 79.061 176.279 79.2135 175.283 79.1982Z" fill="white"/>
<path d="M190.382 74.4255V78.8152H185.61V65.1831H191.739C192.46 65.1819 193.18 65.2561 193.884 65.4043C194.552 65.5404 195.188 65.7954 195.758 66.1561C196.314 66.5149 196.77 66.9971 197.088 67.5613C197.444 68.2482 197.612 69.0099 197.577 69.7756C197.601 70.5224 197.431 71.2633 197.083 71.9326C196.769 72.5013 196.321 72.9922 195.773 73.3664C195.208 73.7481 194.572 74.0227 193.899 74.1756C193.19 74.3427 192.463 74.4266 191.733 74.4255H190.382ZM190.382 68.7453V70.9412H191.39C191.741 70.9439 192.086 70.8539 192.387 70.681C192.54 70.5888 192.663 70.4582 192.743 70.3036C192.823 70.1489 192.857 69.9762 192.842 69.8043C192.85 69.6212 192.809 69.4391 192.721 69.2758C192.643 69.142 192.527 69.0315 192.387 68.9563C192.24 68.877 192.079 68.8216 191.913 68.7924C191.741 68.7603 191.565 68.7438 191.39 68.7432L190.382 68.7453Z" fill="white"/>
<path d="M210.571 66.3895C210.933 65.5701 211.63 64.7671 212.631 64.7671C213.039 64.7619 213.444 64.825 213.828 64.9535V66.5492C212.878 66.5343 211.93 66.6509 211.014 66.8954C211.658 67.5878 212.018 68.7042 212.018 69.7939C212.018 72.8788 209.539 74.6629 206.421 74.6629C205.544 74.6711 204.672 74.5424 203.839 74.2819C203.365 74.6814 202.754 75.1853 202.754 75.8244C202.754 76.4635 203.088 76.8363 204.815 76.9141L208.769 77.119C211.666 77.2787 213.309 77.9977 213.309 80.6299C213.309 83.9544 209.438 84.8066 206.095 84.8066C200.749 84.8066 199.876 82.8647 199.876 81.3755C199.876 79.6999 201.184 78.688 202.188 78.0243C201.351 77.7847 200.796 77.205 200.796 76.2955C200.796 75.2058 201.632 74.4868 202.55 73.7944C201.574 73.3151 200.852 72.3605 200.545 71.1602C200.431 70.7527 200.375 70.3324 200.378 69.9107C200.378 66.879 202.737 64.9351 206.282 64.9351C208.091 64.9535 209.597 65.3264 210.571 66.3895ZM208.705 78.7331L203.635 78.4668C202.578 79.1858 201.797 79.9826 201.797 81.0744C201.797 82.244 202.634 83.2826 206.393 83.2826C209.762 83.2826 211.351 82.2993 211.351 80.5951C211.345 79.5832 210.821 78.8396 208.705 78.7331ZM206.365 66.4161C204.137 66.4161 202.338 67.3993 202.338 69.7755C202.338 71.744 203.507 73.1533 206.32 73.1533C208.66 73.1533 210.163 71.8771 210.163 69.8287C210.152 67.5058 208.771 66.4161 206.365 66.4161Z" fill="white"/>
<path d="M225.888 76.6314C225.888 77.377 226.027 77.6966 226.746 77.6966C227.038 77.685 227.328 77.6311 227.603 77.5368L227.715 78.6798C227.19 78.9371 226.606 79.0653 226.016 79.0526C224.708 79.0526 224.234 78.2804 224.179 77.3504C223.121 78.4156 221.449 79.1325 219.444 79.1325C215.824 79.1325 215.238 76.7646 215.238 75.4618C215.238 71.6047 218.914 70.8857 222.146 70.8857C222.954 70.8857 223.454 70.9123 224.011 70.9389V69.5808C224.011 67.5058 223.398 66.3894 220.919 66.3894C218.663 66.3894 217.882 67.2416 217.578 68.8373L215.834 68.5464C216.281 66.0187 218.007 64.9556 221.043 64.9556C224.44 64.9556 225.89 66.2317 225.89 69.6116L225.888 76.6314ZM224.05 72.3748C223.468 72.3127 222.882 72.286 222.296 72.295C220.346 72.295 217.198 72.4281 217.198 75.1934C217.198 76.5228 217.7 77.6945 219.9 77.6945C221.543 77.6945 223.16 76.8158 224.05 75.8325V72.3748Z" fill="white"/>
<path d="M237.42 66.8155C235.665 66.5226 233.465 67.2949 232.294 68.3846V78.813H230.431V65.2198H231.962L232.129 67.1085C233.493 65.353 235.026 64.9269 236.976 64.9535H237.422L237.42 66.8155Z" fill="white"/>
<path d="M249.338 76.6314C249.338 77.377 249.477 77.6966 250.196 77.6966C250.489 77.685 250.778 77.6311 251.054 77.5368L251.165 78.6798C250.64 78.9371 250.056 79.0653 249.467 79.0526C248.159 79.0526 247.685 78.2804 247.629 77.3504C246.572 78.4156 244.899 79.1325 242.894 79.1325C239.274 79.1325 238.688 76.7646 238.688 75.4618C238.688 71.6047 242.364 70.8857 245.596 70.8857C246.404 70.8857 246.904 70.9123 247.462 70.9389V69.5808C247.462 67.5058 246.848 66.3894 244.369 66.3894C242.113 66.3894 241.333 67.2416 241.028 68.8373L239.285 68.5464C239.731 66.0187 241.457 64.9556 244.494 64.9556C247.89 64.9556 249.34 66.2317 249.34 69.6116L249.338 76.6314ZM247.5 72.3748C246.918 72.3127 246.332 72.286 245.746 72.295C243.797 72.295 240.649 72.4281 240.649 75.1934C240.649 76.5228 241.15 77.6945 243.351 77.6945C244.993 77.6945 246.61 76.8158 247.5 75.8325V72.3748Z" fill="white"/>
<path d="M263.374 66.3895C263.736 65.5701 264.433 64.7671 265.435 64.7671C265.842 64.7619 266.247 64.825 266.631 64.9535V66.5492C265.681 66.5343 264.733 66.6509 263.818 66.8954C264.461 67.5878 264.822 68.7042 264.822 69.7939C264.822 72.8788 262.343 74.6629 259.224 74.6629C258.345 74.672 257.47 74.5433 256.634 74.2819C256.16 74.6814 255.549 75.1853 255.549 75.8244C255.549 76.4635 255.883 76.8363 257.61 76.9141L261.564 77.119C264.461 77.2787 266.104 77.9977 266.104 80.6299C266.104 83.9544 262.233 84.8066 258.89 84.8066C253.544 84.8066 252.671 82.8647 252.671 81.3755C252.671 79.6999 253.979 78.688 254.983 78.0243C254.146 77.7847 253.591 77.205 253.591 76.2955C253.591 75.2058 254.427 74.4868 255.345 73.7944C254.369 73.3151 253.647 72.3605 253.34 71.1602C253.226 70.7527 253.17 70.3324 253.173 69.9107C253.173 66.879 255.532 64.9351 259.076 64.9351C260.895 64.9535 262.4 65.3264 263.374 66.3895ZM261.508 78.7331L256.439 78.4668C255.382 79.1858 254.601 79.9826 254.601 81.0744C254.601 82.244 255.437 83.2826 259.197 83.2826C262.566 83.2826 264.155 82.2993 264.155 80.5951C264.155 79.5832 263.625 78.8396 261.508 78.7331ZM259.167 66.4161C256.938 66.4161 255.128 67.3993 255.128 69.7673C255.128 71.7358 256.297 73.1451 259.111 73.1451C261.45 73.1451 262.954 71.8689 262.954 69.8205C262.956 67.5058 261.564 66.4161 259.167 66.4161Z" fill="white"/>
<path d="M267.914 72.0288C267.914 67.0532 270.916 64.9536 274.515 64.9536C278.413 64.9536 280 67.4813 280 70.726C279.973 71.2586 279.945 71.8157 279.861 72.3749H269.889C270.001 76.4451 271.978 77.5369 274.457 77.5369C276.685 77.5369 277.605 76.6581 278.049 74.9559L279.803 75.2755C279.19 77.963 276.934 79.1326 274.318 79.1326C269.362 79.1326 267.914 75.7794 267.914 72.0288ZM278.051 70.939C278.107 68.1368 276.994 66.4981 274.348 66.4981C272.175 66.4981 270.059 67.7743 269.919 70.9411L278.051 70.939Z" fill="white"/>
<path d="M288.175 81H295.1C298.5 81 300.65 79.175 300.65 76.3C300.65 74.1 299.6 72.65 297.525 71.975C299.375 71.25 300.3 69.825 300.3 67.725C300.3 64.85 298.175 63.1 294.725 63.1H288.175V81ZM294.7 64.7C297.1 64.7 298.45 65.875 298.45 67.875C298.45 70 297.175 71.25 294.925 71.25H289.975V64.7H294.7ZM295.1 72.825C297.425 72.825 298.825 74.05 298.825 76.075C298.825 78.15 297.45 79.375 295.1 79.375H289.975V72.825H295.1ZM305.323 81V62.775H303.598V81H305.323ZM308.141 74.95C308.141 78.625 310.741 81.3 314.291 81.3C317.841 81.3 320.441 78.625 320.441 74.95C320.441 71.25 317.841 68.575 314.291 68.575C310.741 68.575 308.141 71.25 308.141 74.95ZM309.891 74.925C309.891 72.125 311.691 70.125 314.291 70.125C316.866 70.125 318.691 72.125 318.691 74.925C318.691 77.775 316.866 79.75 314.291 79.75C311.691 79.75 309.891 77.775 309.891 74.925ZM322.375 74.6C322.375 77.9 324.475 80.625 327.925 80.625C330 80.625 331.675 79.625 332.5 77.925V80.8C332.5 83.325 330.85 85 328.375 85C326.2 85 324.7 83.85 324.325 81.9H322.6C323.075 84.825 325.25 86.575 328.35 86.575C331.9 86.575 334.2 84.225 334.2 80.625V68.9H332.7L332.525 71.325C331.75 69.55 330.15 68.575 328.05 68.575C324.5 68.575 322.375 71.3 322.375 74.6ZM324.1 74.575C324.1 72.125 325.6 70.1 328.2 70.1C330.85 70.1 332.35 72 332.35 74.575C332.35 77.175 330.8 79.075 328.175 79.075C325.625 79.075 324.1 77.05 324.1 74.575ZM336.775 77.6C336.775 79.85 338.475 81.3 341.2 81.3C343.95 81.3 345.8 79.875 345.8 77.7C345.8 75.95 344.85 74.975 342.75 74.45L340.675 73.925C339.35 73.6 338.7 72.95 338.7 72.025C338.7 70.725 339.65 70 341.35 70C342.975 70 343.95 70.825 344 72.225H345.675C345.6 69.975 343.95 68.575 341.4 68.575C338.8 68.575 337.025 69.925 337.025 72.05C337.025 73.7 338.05 74.8 340.15 75.325L342.225 75.85C343.65 76.2 344.15 76.775 344.15 77.775C344.15 79.075 343.05 79.875 341.175 79.875C339.475 79.875 338.425 79 338.425 77.6H336.775Z" fill="white"/>
<g opacity="0.3">
<path d="M428.315 888.401H-14.3149C-17.2201 888.401 -19.5752 890.65 -19.5752 893.425V931.476C-19.5752 934.251 -17.2201 936.501 -14.3149 936.501H428.315C431.22 936.501 433.576 934.251 433.576 931.476V893.425C433.576 890.65 431.22 888.401 428.315 888.401Z" fill="white"/>
<path d="M428.315 792.201H-14.3149C-17.2201 792.201 -19.5752 794.451 -19.5752 797.226V835.276C-19.5752 838.051 -17.2201 840.301 -14.3149 840.301H428.315C431.22 840.301 433.576 838.051 433.576 835.276V797.226C433.576 794.451 431.22 792.201 428.315 792.201Z" fill="white"/>
<path d="M428.315 696.003H-14.3149C-17.2201 696.003 -19.5752 698.253 -19.5752 701.027V739.078C-19.5752 741.853 -17.2201 744.103 -14.3149 744.103H428.315C431.22 744.103 433.576 741.853 433.576 739.078V701.027C433.576 698.253 431.22 696.003 428.315 696.003Z" fill="white"/>
<path d="M118.507 647.953H-14.2051C-15.6584 647.953 -17.0521 647.402 -18.0797 646.42C-19.1073 645.439 -19.6846 644.107 -19.6846 642.719V604.983C-19.6846 603.595 -19.1073 602.263 -18.0797 601.282C-17.0521 600.3 -15.6584 599.749 -14.2051 599.749H78.9456C80.3102 599.862 81.5809 600.46 82.5072 601.424L122.124 639.265C122.798 639.99 123.247 640.88 123.423 641.835C123.598 642.79 123.493 643.772 123.118 644.673C122.743 645.574 122.113 646.358 121.299 646.937C120.485 647.516 119.518 647.868 118.507 647.953Z" fill="white"/>
<path d="M428.206 647.954H295.548C294.502 647.911 293.491 647.584 292.633 647.009C291.776 646.435 291.109 645.638 290.712 644.713C290.314 643.788 290.202 642.773 290.389 641.789C290.576 640.805 291.054 639.893 291.767 639.161L331.329 601.424C332.336 600.47 333.691 599.926 335.11 599.906H428.26C429.714 599.906 431.107 600.458 432.135 601.439C433.163 602.421 433.74 603.752 433.74 605.14V642.772C433.733 643.459 433.584 644.139 433.302 644.771C433.02 645.403 432.61 645.977 432.096 646.458C431.582 646.939 430.974 647.319 430.307 647.575C429.639 647.832 428.925 647.961 428.206 647.954Z" fill="white"/>
<path d="M207 407.456C281.691 407.456 354.705 428.612 416.808 468.249C478.911 507.885 527.315 564.222 555.897 630.136C584.48 696.049 591.959 768.578 577.388 838.551C562.816 908.525 526.849 972.799 474.035 1023.25C421.22 1073.69 353.931 1108.05 280.675 1121.97C207.419 1135.89 131.487 1128.74 62.4821 1101.44C-6.52327 1074.14 -65.5032 1027.9 -106.999 968.584C-148.495 909.264 -170.644 839.522 -170.644 768.178C-170.528 672.543 -130.703 580.856 -59.9062 513.231C10.8906 445.607 106.878 407.567 207 407.456ZM207 359.356C122.35 359.356 39.6003 383.333 -30.7839 428.255C-101.168 473.177 -156.026 537.026 -188.42 611.729C-220.815 686.431 -229.29 768.632 -212.776 847.935C-196.261 927.239 -155.498 1000.08 -95.6415 1057.26C-35.7847 1114.43 40.4776 1153.37 123.501 1169.14C206.525 1184.92 292.582 1176.82 370.789 1145.88C448.995 1114.94 515.84 1062.54 562.869 995.307C609.898 928.077 635 849.035 635 768.178C635 659.752 589.907 555.766 509.642 479.097C429.376 402.428 320.513 359.356 207 359.356Z" fill="#C8512C"/>
</g>
</g>
<defs>
<clipPath id="clip0_144_3353">
<rect width="720" height="1024" fill="white"/>
</clipPath>
</defs>
</svg>
